<svg width="22" height="22" viewBox="0 0 22 22" fill="none" xmlns="http://www.w3.org/2000/svg">
<path d="M6.82537 17.6039L6.82353 17.6018C4.27928 14.6779 3 11.5216 3 8.47541C3 4.3419 6.34742 1 10.5 1C14.6526 1 18 4.3419 18 8.47541C18 11.5207 16.7215 14.676 14.1787 17.5991C13.2271 18.6771 12.2849 19.5302 11.5711 20.1179C11.2145 20.4116 10.9169 20.6373 10.7065 20.79C10.6212 20.8519 10.5512 20.9012 10.4982 20.9376C10.4448 20.902 10.3731 20.8528 10.2851 20.7903C10.0762 20.6419 9.7803 20.4215 9.42536 20.1319C8.71456 19.552 7.77496 18.7014 6.82537 17.6039ZM6.24468 8.38525C6.24468 10.7435 8.14194 12.6311 10.5 12.6311C12.8581 12.6311 14.7553 10.7435 14.7553 8.38525C14.7553 6.02695 12.8581 4.13934 10.5 4.13934C8.14194 4.13934 6.24468 6.02695 6.24468 8.38525Z" stroke="black" stroke-width="2"/>
</svg>
