<svg width="22" height="22" viewBox="0 0 22 22" fill="none" xmlns="http://www.w3.org/2000/svg">
<path d="M6.87995 6.52172L4.62981 4.37473C4.10462 3.87313 3.28125 3.8886 2.77323 4.40826C1.31213 5.90406 -0.778429 9.24638 3.76955 13.4817C10.0005 19.2843 10.5092 19.6712 10.5092 19.6712C10.5092 19.6712 14.3508 23.0258 17.7727 19.0754C18.2331 18.5442 18.1994 17.7389 17.7021 17.2424L15.3032 14.8466C14.7488 14.2928 13.8688 14.2599 13.2756 14.7705L12.2259 15.6738L6.37639 9.93561L7.07578 9.01621C7.65247 8.25735 7.56791 7.17871 6.87995 6.52172Z" stroke="black" stroke-width="2" stroke-miterlimit="10" stroke-linecap="round"/>
<path d="M11.0814 6.32539C11.0814 6.32539 15.5957 5.87408 15.9772 10.903" stroke="black" stroke-width="2" stroke-miterlimit="10" stroke-linecap="round"/>
<path d="M10.9531 1.02143C10.9531 1.02143 20.2163 0.0955849 20.999 10.4146" stroke="black" stroke-width="2" stroke-miterlimit="10" stroke-linecap="round"/>
</svg>
