<svg width="69" height="80" viewBox="0 0 69 80" fill="none" xmlns="http://www.w3.org/2000/svg">
<path d="M30.192 48.7042L18.0643 60.8319C16.937 61.9592 15.1187 61.9592 14.0096 60.8319L1.84549 48.7042C0.718171 47.5769 0.718171 45.7586 1.84549 44.6495L13.9732 32.5218C15.1005 31.3944 16.9188 31.3944 18.0279 32.5218L30.1556 44.6495C31.3011 45.7586 31.3011 47.5769 30.192 48.7042Z" stroke="white" stroke-width="2" stroke-miterlimit="10"/>
<path d="M48.5707 66.8155L36.443 78.9432C35.3157 80.0706 33.4974 80.0706 32.3883 78.9432L20.2605 66.8155C19.1332 65.6882 19.1332 63.8699 20.2605 62.7608L32.3883 50.6331C33.5156 49.5058 35.3338 49.5058 36.443 50.6331L48.5707 62.7608C49.6798 63.8699 49.6798 65.6882 48.5707 66.8155Z" fill="#FF3100"/>
<path d="M67.1681 48.7027L55.0404 60.8305C53.9131 61.9578 52.0948 61.9578 50.9857 60.8305L38.858 48.7027C37.7307 47.5754 37.7307 45.7572 38.858 44.648L50.9857 32.5203C52.113 31.393 53.9313 31.393 55.0404 32.5203L67.1681 44.648C68.2773 45.7572 68.2773 47.5754 67.1681 48.7027Z" stroke="white" stroke-width="2" stroke-miterlimit="10"/>
<path d="M58.2148 18.0461L36.9958 39.2651C35.8685 40.3924 34.0503 40.3924 32.9411 39.2651L20.8134 27.1373C19.6861 26.01 19.6861 24.1918 20.8134 23.0827L42.0142 1.84549C43.1415 0.718171 44.9598 0.718171 46.0689 1.84549L58.1966 13.9732C59.3421 15.1005 59.3421 16.937 58.2148 18.0461Z" stroke="white" stroke-width="2" stroke-miterlimit="10"/>
</svg>
