<svg width="188" height="18" viewBox="0 0 188 18" fill="none" xmlns="http://www.w3.org/2000/svg">
<path d="M3.15723 1.94V14H0.457226V1.4H14.1372V14H11.4372V1.94H3.15723ZM25.0707 7.7C25.5867 7.7 26.0127 7.556 26.3487 7.268C26.6967 6.98 26.9547 6.626 27.1227 6.206C27.3027 5.774 27.3927 5.312 27.3927 4.82C27.3927 4.316 27.3027 3.854 27.1227 3.434C26.9547 3.002 26.6967 2.642 26.3487 2.354C26.0127 2.066 25.5867 1.922 25.0707 1.922L19.9767 1.94V7.7H25.0707ZM19.9767 14H17.2767V1.4H26.6907C27.4467 1.4 28.0767 1.568 28.5807 1.904C29.0967 2.24 29.4807 2.666 29.7327 3.182C29.9847 3.686 30.1107 4.232 30.1107 4.82C30.1107 5.408 29.9847 5.96 29.7327 6.476C29.4807 6.98 29.0967 7.4 28.5807 7.736C28.0767 8.072 27.4467 8.24 26.6907 8.24H19.9767V14ZM31.2836 7.718C31.2836 6.842 31.4036 6.068 31.6436 5.396C31.8836 4.712 32.2076 4.124 32.6156 3.632C33.0236 3.14 33.4976 2.732 34.0376 2.408C34.5776 2.072 35.1476 1.802 35.7476 1.598C36.3476 1.394 36.9596 1.25 37.5836 1.166C38.2076 1.082 38.8076 1.04 39.3836 1.04C39.9596 1.04 40.5596 1.082 41.1836 1.166C41.8076 1.25 42.4196 1.394 43.0196 1.598C43.6196 1.79 44.1896 2.054 44.7296 2.39C45.2696 2.726 45.7436 3.14 46.1516 3.632C46.5596 4.124 46.8836 4.706 47.1236 5.378C47.3636 6.038 47.4836 6.806 47.4836 7.682C47.4836 8.558 47.3636 9.338 47.1236 10.022C46.8836 10.694 46.5596 11.276 46.1516 11.768C45.7436 12.26 45.2696 12.674 44.7296 13.01C44.1896 13.334 43.6196 13.598 43.0196 13.802C42.4196 14.006 41.8076 14.15 41.1836 14.234C40.5596 14.318 39.9596 14.36 39.3836 14.36C38.8076 14.36 38.2076 14.318 37.5836 14.234C36.9596 14.15 36.3476 14.012 35.7476 13.82C35.1476 13.616 34.5776 13.346 34.0376 13.01C33.4976 12.674 33.0236 12.26 32.6156 11.768C32.2076 11.276 31.8836 10.7 31.6436 10.04C31.4036 9.368 31.2836 8.594 31.2836 7.718ZM33.9656 7.7C33.9536 9.668 34.3856 11.18 35.2616 12.236C36.1376 13.28 37.5116 13.808 39.3836 13.82C40.3196 13.82 41.1296 13.682 41.8136 13.406C42.4976 13.118 43.0556 12.71 43.4876 12.182C43.9316 11.642 44.2616 10.994 44.4776 10.238C44.6936 9.47 44.8016 8.618 44.8016 7.682C44.8016 6.746 44.6936 5.906 44.4776 5.162C44.2616 4.406 43.9316 3.764 43.4876 3.236C43.0556 2.696 42.4976 2.288 41.8136 2.012C41.1296 1.724 40.3196 1.58 39.3836 1.58C38.4476 1.58 37.6376 1.718 36.9536 1.994C36.2816 2.258 35.7236 2.654 35.2796 3.182C34.8356 3.698 34.5056 4.334 34.2896 5.09C34.0736 5.846 33.9656 6.716 33.9656 7.7ZM60.7803 14H49.3863V1.4H59.7003V1.94H52.0863V7.7H56.6223L56.2443 8.24H52.0863V13.46H60.7803V14ZM62.4792 14V1.4H65.1792V14H62.4792ZM71.7132 14L67.3032 7.7H70.3992L74.8092 14H71.7132ZM70.4892 1.4H71.1732L66.7632 7.7H66.0792L70.4892 1.4ZM81.7833 1.94V14H79.0833V1.94H73.2693V1.4H87.5433V1.94H81.7833Z" fill="white"/>
<path d="M102.876 1.94V14H100.176V1.4H113.856V14H111.156V1.94H102.876ZM125.066 14V1.4H127.766V14H125.066ZM115.868 14H115.202L124.04 1.4H124.706L115.868 14ZM141.93 14V1.4H144.63V14H141.93ZM130.914 14V1.4H133.614V12.74L140.706 2.66H141.39L133.416 14H130.914ZM154.666 1.94V14H151.966V1.94H146.152V1.4H160.426V1.94H154.666ZM161.952 14V1.4H164.652V14H161.952ZM171.186 14L166.776 7.7H169.872L174.282 14H171.186ZM169.962 1.4H170.646L166.236 7.7H165.552L169.962 1.4ZM179.972 8.24L175.922 14H175.256L184.094 1.4H184.76L180.35 7.7H185.12V1.4H187.82V14H185.12V8.24H179.972Z" fill="white"/>
</svg>
