<svg width="63" height="51" viewBox="0 0 63 51" fill="none" xmlns="http://www.w3.org/2000/svg">
<path d="M6.976 42.56L5.36268 43.742L5.37215 43.755L5.38182 43.7677L6.976 42.56ZM6.976 8.704L5.37597 7.50397L5.36832 7.51431L6.976 8.704ZM33.344 8.704L31.7286 9.88325L31.7363 9.89368L33.344 8.704ZM33.344 42.56L34.9537 43.747L34.9573 43.742L33.344 42.56ZM26.944 14.656L25.2367 15.6977L25.2431 15.7082L25.2496 15.7186L26.944 14.656ZM13.376 36.544L11.6687 37.5857L11.6727 37.5922L11.6767 37.5987L13.376 36.544ZM26.944 36.48L25.2496 35.4174L25.2431 35.4278L25.2367 35.4383L26.944 36.48ZM20.16 46.896C15.1568 46.896 11.3686 45.0462 8.57018 41.3523L5.38182 43.7677C8.98339 48.5218 13.9845 50.896 20.16 50.896V46.896ZM8.58932 41.378C5.75104 37.5041 4.24 32.3035 4.24 25.6H0.24C0.24 32.8912 1.88629 38.9972 5.36268 43.742L8.58932 41.378ZM4.24 25.6C4.24 18.8953 5.75151 13.7209 8.58368 9.89368L5.36832 7.51431C1.88582 12.2204 0.24 18.31 0.24 25.6H4.24ZM8.576 9.904C11.3776 6.16856 15.1648 4.304 20.16 4.304V0.303997C13.9765 0.303997 8.97443 2.7061 5.376 7.504L8.576 9.904ZM20.16 4.304C25.2514 4.304 29.022 6.17549 31.7286 9.88322L34.9594 7.52478C31.4367 2.69917 26.4179 0.303997 20.16 0.303997V4.304ZM31.7363 9.89368C34.5685 13.7209 36.08 18.8953 36.08 25.6H40.08C40.08 18.31 38.4342 12.2204 34.9517 7.51431L31.7363 9.89368ZM36.08 25.6C36.08 32.3035 34.569 37.5041 31.7307 41.378L34.9573 43.742C38.4337 38.9972 40.08 32.8912 40.08 25.6H36.08ZM31.7343 41.373C29.0309 45.0393 25.2595 46.896 20.16 46.896V50.896C26.4098 50.896 31.4278 48.5287 34.9537 43.747L31.7343 41.373ZM31.312 25.6C31.312 20.6528 30.5039 16.5682 28.6384 13.5934L25.2496 15.7186C26.5414 17.7785 27.312 20.9899 27.312 25.6H31.312ZM28.6513 13.6143C26.7465 10.4925 23.8329 8.88 20.16 8.88V12.88C22.4604 12.88 24.0695 13.7849 25.2367 15.6977L28.6513 13.6143ZM20.16 8.88C16.4871 8.88 13.5735 10.4925 11.6687 13.6143L15.0833 15.6977C16.2505 13.7849 17.8596 12.88 20.16 12.88V8.88ZM11.6687 13.6143C9.85683 16.5838 9.072 20.6594 9.072 25.6H13.072C13.072 20.9832 13.8232 17.7629 15.0833 15.6977L11.6687 13.6143ZM9.072 25.6C9.072 30.5406 9.85683 34.6162 11.6687 37.5857L15.0833 35.5023C13.8232 33.4371 13.072 30.2168 13.072 25.6H9.072ZM11.6767 37.5987C13.5887 40.6792 16.503 42.256 20.16 42.256V38.256C17.8437 38.256 16.2353 37.3582 15.0753 35.4893L11.6767 37.5987ZM20.16 42.256C23.8329 42.256 26.7465 40.6435 28.6513 37.5217L25.2367 35.4383C24.0695 37.3511 22.4604 38.256 20.16 38.256V42.256ZM28.6384 37.5426C30.5025 34.57 31.312 30.5087 31.312 25.6H27.312C27.312 30.1633 26.5428 33.3553 25.2496 35.4174L28.6384 37.5426ZM41.0465 7.36L40.3803 5.47421L38.6027 6.10217L39.1247 7.91374L41.0465 7.36ZM52.8225 3.2V1.2H52.4796L52.1563 1.31421L52.8225 3.2ZM60.5025 3.2H62.5025V1.2H60.5025V3.2ZM60.5025 48V50H62.5025V48H60.5025ZM51.6705 48H49.6705V50H51.6705V48ZM51.6705 12.544H53.6705V9.90631L51.1307 10.6182L51.6705 12.544ZM43.2225 14.912L41.3007 15.4657L41.8504 17.3737L43.7623 16.8378L43.2225 14.912ZM41.7127 9.24579L53.4887 5.08579L52.1563 1.31421L40.3803 5.47421L41.7127 9.24579ZM52.8225 5.2H60.5025V1.2H52.8225V5.2ZM58.5025 3.2V48H62.5025V3.2H58.5025ZM60.5025 46H51.6705V50H60.5025V46ZM53.6705 48V12.544H49.6705V48H53.6705ZM51.1307 10.6182L42.6827 12.9862L43.7623 16.8378L52.2103 14.4698L51.1307 10.6182ZM45.1443 14.3583L42.9683 6.80625L39.1247 7.91374L41.3007 15.4657L45.1443 14.3583Z" fill="black"/>
</svg>
