<svg width="88" height="59" viewBox="0 0 88 59" fill="none" xmlns="http://www.w3.org/2000/svg">
<g filter="url(#filter0_d)">
<path d="M10.976 42.56L9.36268 43.742L9.37215 43.755L9.38182 43.7677L10.976 42.56ZM10.976 8.704L9.37597 7.50397L9.36832 7.51431L10.976 8.704ZM37.344 8.704L35.7286 9.88325L35.7363 9.89368L37.344 8.704ZM37.344 42.56L38.9537 43.747L38.9573 43.742L37.344 42.56ZM30.944 14.656L29.2367 15.6977L29.2431 15.7082L29.2496 15.7186L30.944 14.656ZM17.376 36.544L15.6687 37.5857L15.6727 37.5922L15.6767 37.5987L17.376 36.544ZM30.944 36.48L29.2496 35.4174L29.2431 35.4278L29.2367 35.4383L30.944 36.48ZM24.16 46.896C19.1568 46.896 15.3686 45.0462 12.5702 41.3523L9.38182 43.7677C12.9834 48.5218 17.9845 50.896 24.16 50.896V46.896ZM12.5893 41.378C9.75104 37.5041 8.24 32.3035 8.24 25.6H4.24C4.24 32.8912 5.88629 38.9972 9.36268 43.742L12.5893 41.378ZM8.24 25.6C8.24 18.8953 9.75151 13.7209 12.5837 9.89368L9.36832 7.51431C5.88582 12.2204 4.24 18.31 4.24 25.6H8.24ZM12.576 9.904C15.3776 6.16856 19.1648 4.304 24.16 4.304V0.303997C17.9765 0.303997 12.9744 2.7061 9.376 7.504L12.576 9.904ZM24.16 4.304C29.2514 4.304 33.022 6.17549 35.7286 9.88322L38.9594 7.52478C35.4367 2.69917 30.4179 0.303997 24.16 0.303997V4.304ZM35.7363 9.89368C38.5685 13.7209 40.08 18.8953 40.08 25.6H44.08C44.08 18.31 42.4342 12.2204 38.9517 7.51431L35.7363 9.89368ZM40.08 25.6C40.08 32.3035 38.569 37.5041 35.7307 41.378L38.9573 43.742C42.4337 38.9972 44.08 32.8912 44.08 25.6H40.08ZM35.7343 41.373C33.0309 45.0393 29.2595 46.896 24.16 46.896V50.896C30.4098 50.896 35.4278 48.5287 38.9537 43.747L35.7343 41.373ZM35.312 25.6C35.312 20.6528 34.5039 16.5682 32.6384 13.5934L29.2496 15.7186C30.5414 17.7785 31.312 20.9899 31.312 25.6H35.312ZM32.6513 13.6143C30.7465 10.4925 27.8329 8.88 24.16 8.88V12.88C26.4604 12.88 28.0695 13.7849 29.2367 15.6977L32.6513 13.6143ZM24.16 8.88C20.4871 8.88 17.5735 10.4925 15.6687 13.6143L19.0833 15.6977C20.2505 13.7849 21.8596 12.88 24.16 12.88V8.88ZM15.6687 13.6143C13.8568 16.5838 13.072 20.6594 13.072 25.6H17.072C17.072 20.9832 17.8232 17.7629 19.0833 15.6977L15.6687 13.6143ZM13.072 25.6C13.072 30.5406 13.8568 34.6162 15.6687 37.5857L19.0833 35.5023C17.8232 33.4371 17.072 30.2168 17.072 25.6H13.072ZM15.6767 37.5987C17.5887 40.6792 20.503 42.256 24.16 42.256V38.256C21.8437 38.256 20.2353 37.3582 19.0753 35.4893L15.6767 37.5987ZM24.16 42.256C27.8329 42.256 30.7465 40.6435 32.6513 37.5217L29.2367 35.4383C28.0695 37.3511 26.4604 38.256 24.16 38.256V42.256ZM32.6384 37.5426C34.5025 34.57 35.312 30.5087 35.312 25.6H31.312C31.312 30.1633 30.5428 33.3553 29.2496 35.4174L32.6384 37.5426ZM77.0165 32.192H75.0165V34.192H77.0165V32.192ZM81.8165 32.192H83.8165V30.192H81.8165V32.192ZM81.8165 40.384V42.384H83.8165V40.384H81.8165ZM77.0165 40.384V38.384H75.0165V40.384H77.0165ZM77.0165 48V50H79.0165V48H77.0165ZM68.1205 48H66.1205V50H68.1205V48ZM68.1205 40.384H70.1205V38.384H68.1205V40.384ZM46.9365 40.384H44.9365V42.384H46.9365V40.384ZM46.9365 32.192L45.158 31.2772L44.9365 31.7078V32.192H46.9365ZM61.8485 3.2V1.2H60.6281L60.07 2.28521L61.8485 3.2ZM71.3205 3.2L73.1006 4.11167L74.5918 1.2H71.3205V3.2ZM56.4725 32.192L54.6924 31.2803L53.2012 34.192H56.4725V32.192ZM68.1205 32.192V34.192H70.1205V32.192H68.1205ZM68.1205 21.568V19.568H66.1205V21.568H68.1205ZM77.0165 21.568H79.0165V19.568H77.0165V21.568ZM77.0165 34.192H81.8165V30.192H77.0165V34.192ZM79.8165 32.192V40.384H83.8165V32.192H79.8165ZM81.8165 38.384H77.0165V42.384H81.8165V38.384ZM75.0165 40.384V48H79.0165V40.384H75.0165ZM77.0165 46H68.1205V50H77.0165V46ZM70.1205 48V40.384H66.1205V48H70.1205ZM68.1205 38.384H46.9365V42.384H68.1205V38.384ZM48.9365 40.384V32.192H44.9365V40.384H48.9365ZM48.715 33.1068L63.627 4.11478L60.07 2.28521L45.158 31.2772L48.715 33.1068ZM61.8485 5.2H71.3205V1.2H61.8485V5.2ZM69.5404 2.28832L54.6924 31.2803L58.2526 33.1037L73.1006 4.11167L69.5404 2.28832ZM56.4725 34.192H68.1205V30.192H56.4725V34.192ZM70.1205 32.192V21.568H66.1205V32.192H70.1205ZM68.1205 23.568H77.0165V19.568H68.1205V23.568ZM75.0165 21.568V32.192H79.0165V21.568H75.0165Z" fill="black"/>
</g>
<defs>
<filter id="filter0_d" x="0.23999" y="0.304016" width="87.5765" height="58.592" filterUnits="userSpaceOnUse" color-interpolation-filters="sRGB">
<feFlood flood-opacity="0" result="BackgroundImageFix"/>
<feColorMatrix in="SourceAlpha" type="matrix" values="0 0 0 0 0 0 0 0 0 0 0 0 0 0 0 0 0 0 127 0" result="hardAlpha"/>
<feOffset dy="4"/>
<feGaussianBlur stdDeviation="2"/>
<feColorMatrix type="matrix" values="0 0 0 0 0 0 0 0 0 0 0 0 0 0 0 0 0 0 0.25 0"/>
<feBlend mode="normal" in2="BackgroundImageFix" result="effect1_dropShadow"/>
<feBlend mode="normal" in="SourceGraphic" in2="effect1_dropShadow" result="shape"/>
</filter>
</defs>
</svg>
