<svg width="75" height="51" viewBox="0 0 75 51" fill="none" xmlns="http://www.w3.org/2000/svg">
<path d="M6.976 42.56L5.36268 43.742L5.37215 43.755L5.38182 43.7677L6.976 42.56ZM6.976 8.704L5.37597 7.50397L5.36832 7.51431L6.976 8.704ZM33.344 8.704L31.7286 9.88325L31.7363 9.89368L33.344 8.704ZM33.344 42.56L34.9537 43.747L34.9573 43.742L33.344 42.56ZM26.944 14.656L25.2367 15.6977L25.2431 15.7082L25.2496 15.7186L26.944 14.656ZM13.376 36.544L11.6687 37.5857L11.6727 37.5922L11.6767 37.5987L13.376 36.544ZM26.944 36.48L25.2496 35.4174L25.2431 35.4278L25.2367 35.4383L26.944 36.48ZM20.16 46.896C15.1568 46.896 11.3686 45.0462 8.57018 41.3523L5.38182 43.7677C8.98339 48.5218 13.9845 50.896 20.16 50.896V46.896ZM8.58932 41.378C5.75104 37.5041 4.24 32.3035 4.24 25.6H0.24C0.24 32.8912 1.88629 38.9972 5.36268 43.742L8.58932 41.378ZM4.24 25.6C4.24 18.8953 5.75151 13.7209 8.58368 9.89368L5.36832 7.51431C1.88582 12.2204 0.24 18.31 0.24 25.6H4.24ZM8.576 9.904C11.3776 6.16856 15.1648 4.304 20.16 4.304V0.303997C13.9765 0.303997 8.97443 2.7061 5.376 7.504L8.576 9.904ZM20.16 4.304C25.2514 4.304 29.022 6.17549 31.7286 9.88322L34.9594 7.52478C31.4367 2.69917 26.4179 0.303997 20.16 0.303997V4.304ZM31.7363 9.89368C34.5685 13.7209 36.08 18.8953 36.08 25.6H40.08C40.08 18.31 38.4342 12.2204 34.9517 7.51431L31.7363 9.89368ZM36.08 25.6C36.08 32.3035 34.569 37.5041 31.7307 41.378L34.9573 43.742C38.4337 38.9972 40.08 32.8912 40.08 25.6H36.08ZM31.7343 41.373C29.0309 45.0393 25.2595 46.896 20.16 46.896V50.896C26.4098 50.896 31.4278 48.5287 34.9537 43.747L31.7343 41.373ZM31.312 25.6C31.312 20.6528 30.5039 16.5682 28.6384 13.5934L25.2496 15.7186C26.5414 17.7785 27.312 20.9899 27.312 25.6H31.312ZM28.6513 13.6143C26.7465 10.4925 23.8329 8.88 20.16 8.88V12.88C22.4604 12.88 24.0695 13.7849 25.2367 15.6977L28.6513 13.6143ZM20.16 8.88C16.4871 8.88 13.5735 10.4925 11.6687 13.6143L15.0833 15.6977C16.2505 13.7849 17.8596 12.88 20.16 12.88V8.88ZM11.6687 13.6143C9.85683 16.5838 9.072 20.6594 9.072 25.6H13.072C13.072 20.9832 13.8232 17.7629 15.0833 15.6977L11.6687 13.6143ZM9.072 25.6C9.072 30.5406 9.85683 34.6162 11.6687 37.5857L15.0833 35.5023C13.8232 33.4371 13.072 30.2168 13.072 25.6H9.072ZM11.6767 37.5987C13.5887 40.6792 16.503 42.256 20.16 42.256V38.256C17.8437 38.256 16.2353 37.3582 15.0753 35.4893L11.6767 37.5987ZM20.16 42.256C23.8329 42.256 26.7465 40.6435 28.6513 37.5217L25.2367 35.4383C24.0695 37.3511 22.4604 38.256 20.16 38.256V42.256ZM28.6384 37.5426C30.5025 34.57 31.312 30.5087 31.312 25.6H27.312C27.312 30.1633 26.5428 33.3553 25.2496 35.4174L28.6384 37.5426ZM72.1475 48V50H74.1475V48H72.1475ZM42.1955 48H40.1955V50H42.1955V48ZM42.1955 41.408L40.761 40.0143L40.1955 40.5964V41.408H42.1955ZM57.4915 25.664L58.926 27.0577L58.937 27.0463L58.9479 27.0347L57.4915 25.664ZM60.9475 12.48L59.5333 13.8942L59.5471 13.9081L59.5613 13.9217L60.9475 12.48ZM49.2995 16.128L48.2881 17.8534L50.2074 18.9786L51.1225 16.9506L49.2995 16.128ZM41.8755 11.776L40.0521 10.9542L39.3137 12.5926L40.8641 13.5014L41.8755 11.776ZM47.8275 4.8L48.885 6.49757L48.8924 6.49292L47.8275 4.8ZM67.0915 6.144L65.7683 7.64367L65.7745 7.64918L65.7808 7.65464L67.0915 6.144ZM55.3155 39.488L53.9013 38.0738L50.4871 41.488H55.3155V39.488ZM72.1475 39.488H74.1475V37.488H72.1475V39.488ZM72.1475 46H42.1955V50H72.1475V46ZM44.1955 48V41.408H40.1955V48H44.1955ZM43.63 42.8017L58.926 27.0577L56.057 24.2703L40.761 40.0143L43.63 42.8017ZM58.9479 27.0347C60.719 25.153 62.1103 23.3723 63.068 21.6963C64.0189 20.0321 64.6115 18.3506 64.6115 16.704H60.6115C60.6115 17.4041 60.3507 18.3892 59.595 19.7117C58.8461 21.0224 57.6774 22.5483 56.0351 24.2933L58.9479 27.0347ZM64.6115 16.704C64.6115 14.4921 63.8903 12.535 62.3337 11.0383L59.5613 13.9217C60.2234 14.5583 60.6115 15.4173 60.6115 16.704H64.6115ZM62.3617 11.0658C60.8695 9.57356 58.9487 8.88 56.7875 8.88V12.88C58.0397 12.88 58.8922 13.2531 59.5333 13.8942L62.3617 11.0658ZM56.7875 8.88C54.7214 8.88 52.8317 9.41597 51.2076 10.5542C49.5983 11.6821 48.3757 13.3125 47.4765 15.3054L51.1225 16.9506C51.8019 15.4448 52.6167 14.4512 53.5034 13.8298C54.3753 13.2187 55.4403 12.88 56.7875 12.88V8.88ZM50.3109 14.4026L42.8869 10.0506L40.8641 13.5014L48.2881 17.8534L50.3109 14.4026ZM43.6989 12.5978C44.9156 9.8982 46.647 7.89169 48.885 6.49756L46.77 3.10244C43.8026 4.95097 41.5661 7.59513 40.0521 10.9542L43.6989 12.5978ZM48.8924 6.49292C51.2064 5.03734 53.7787 4.304 56.6595 4.304V0.303997C53.0549 0.303997 49.7393 1.23465 46.7626 3.10708L48.8924 6.49292ZM56.6595 4.304C60.2509 4.304 63.2509 5.42246 65.7683 7.64367L68.4147 4.64432C65.1295 1.74554 61.1748 0.303997 56.6595 0.303997V4.304ZM65.7808 7.65464C68.188 9.74322 69.4435 12.5753 69.4435 16.384H73.4435C73.4435 11.574 71.7977 7.57944 68.4022 4.63335L65.7808 7.65464ZM69.4435 16.384C69.4435 20.2921 67.3837 24.5914 62.6693 29.3058L65.4977 32.1342C70.5967 27.0352 73.4435 21.7772 73.4435 16.384H69.4435ZM62.6693 29.3058L53.9013 38.0738L56.7297 40.9022L65.4977 32.1342L62.6693 29.3058ZM55.3155 41.488H72.1475V37.488H55.3155V41.488ZM70.1475 39.488V48H74.1475V39.488H70.1475Z" fill="white"/>
</svg>
