<svg width="58" height="58" viewBox="0 0 58 58" fill="none" xmlns="http://www.w3.org/2000/svg">
<path d="M56 56V20.8593C56 20.1809 55.6115 19.3668 54.964 18.9598L30.3597 2.40704C29.5827 1.86432 28.5468 1.86432 27.7698 2.40704L3.03597 18.9598C2.38849 19.5025 2 20.1809 2 20.8593V56" stroke="white" stroke-width="3" stroke-miterlimit="10" stroke-linecap="round"/>
<path d="M33.0302 40.966H18.7148V55.9321H33.0302V40.966Z" stroke="white" stroke-width="3" stroke-miterlimit="10"/>
<path d="M47.3458 40.966H33.0305V55.9321H47.3458V40.966Z" stroke="white" stroke-width="3" stroke-miterlimit="10"/>
<path d="M47.3458 26H33.0305V40.9661H47.3458V26Z" stroke="white" stroke-width="3" stroke-miterlimit="10"/>
<path d="M18.7148 55.9321L33.0302 40.966" stroke="white" stroke-width="3" stroke-miterlimit="10"/>
<path d="M18.7148 40.966L33.0302 55.9321" stroke="white" stroke-width="3" stroke-miterlimit="10"/>
<path d="M33.0305 55.9321L47.3458 40.966" stroke="white" stroke-width="3" stroke-miterlimit="10"/>
<path d="M33.0305 40.966L47.3458 55.9321" stroke="white" stroke-width="3" stroke-miterlimit="10"/>
<path d="M33.0305 40.9661L47.3458 26" stroke="white" stroke-width="3" stroke-miterlimit="10"/>
<path d="M33.0305 26L47.3458 40.9661" stroke="white" stroke-width="3" stroke-miterlimit="10"/>
</svg>
