<svg width="56" height="56" viewBox="0 0 56 56" fill="none" xmlns="http://www.w3.org/2000/svg">
<path d="M55 55V19.8593C55 19.1809 54.6115 18.3668 53.964 17.9598L29.3597 1.40704C28.5827 0.864322 27.5468 0.864322 26.7698 1.40704L2.03597 17.9598C1.38849 18.5025 1 19.1809 1 19.8593V55" stroke="black" stroke-width="2" stroke-miterlimit="10" stroke-linecap="round"/>
<path d="M32.0302 39.966H17.7148V54.9321H32.0302V39.966Z" stroke="black" stroke-width="2" stroke-miterlimit="10"/>
<path d="M46.3458 39.966H32.0305V54.9321H46.3458V39.966Z" stroke="black" stroke-width="2" stroke-miterlimit="10"/>
<path d="M46.3458 25H32.0305V39.9661H46.3458V25Z" stroke="black" stroke-width="2" stroke-miterlimit="10"/>
<path d="M17.7148 54.9321L32.0302 39.966" stroke="black" stroke-width="2" stroke-miterlimit="10"/>
<path d="M17.7148 39.966L32.0302 54.9321" stroke="black" stroke-width="2" stroke-miterlimit="10"/>
<path d="M32.0305 54.9321L46.3458 39.966" stroke="black" stroke-width="2" stroke-miterlimit="10"/>
<path d="M32.0305 39.966L46.3458 54.9321" stroke="black" stroke-width="2" stroke-miterlimit="10"/>
<path d="M32.0305 39.9661L46.3458 25" stroke="black" stroke-width="2" stroke-miterlimit="10"/>
<path d="M32.0305 25L46.3458 39.9661" stroke="black" stroke-width="2" stroke-miterlimit="10"/>
</svg>
